# xmcd
#
# Track frame offsets:
#	150
#	17870
#	27395
#	39900
#	50587
#	61821
#	73745
#	86022
#	96340
#	110115
#
# Disc length: 1612 seconds
#
# Revision: 0
# Processed by: cddbd v1.5.2PL0 Copyright (c) Steve Scherf et al.
# Submitted via: EZCDAudioConverter 2.0.4.1
#
DISCID=88064a0a
DTITLE=Rose Maddox - Rosie
DYEAR=2008
DGENRE=Country
TTITLE0=Faded Love
TTITLE1=Bigger The Pride
TTITLE2=Get It Over
TTITLE3=I Still Believe In Tomorrow
TTITLE4=Goodbye On Your Mind
TTITLE5=Rocky Top
TTITLE6=All I Have To Offer You Is Me
TTITLE7=Key's In The Mailbox
TTITLE8=I'm Happy Everyday I Live
TTITLE9=Philadelphia Lawyer
EXTD=
EXTT0=
EXTT1=
EXTT2=
EXTT3=
EXTT4=
EXTT5=
EXTT6=
EXTT7=
EXTT8=
EXTT9=
PLAYORDER=
